<svg width="44" height="41" viewBox="0 0 44 41" fill="none" xmlns="http://www.w3.org/2000/svg">
<path d="M34.7446 16.4164C36.4912 16.431 38.0751 15.0625 38.0751 13.2085C38.0751 11.3546 36.4791 9.98902 34.7446 10.0036H29.803C28.7973 10.0036 27.9752 9.20534 27.9752 8.23158C27.9752 7.25783 28.7973 6.4566 29.803 6.4566H40.4631C42.4145 6.4566 43.7906 4.90094 43.7906 3.22538C43.7906 1.54982 42.3873 -0.00292006 40.4631 4.12363e-06H4.0442C1.81583 4.12363e-06 0 1.76329 0 3.93011V10.1615C0 11.5271 1.1443 12.6383 2.55059 12.6383H5.93531C7.3416 12.6383 8.4859 11.5271 8.4859 10.1615V8.38949C8.4859 8.33101 8.50698 8.27837 8.54914 8.23743C8.5913 8.19649 8.6455 8.1731 8.70573 8.1731L21.004 8.17895L1.06601 32.9088C0.379426 33.7626 0 34.83 0 35.9119V36.7248C0 38.5788 1.55384 40.0877 3.46302 40.0877H31.8387C34.0701 40.0877 35.8829 38.3244 35.8829 36.1605V29.929C35.8829 28.5634 34.7386 27.4523 33.3323 27.4523H29.9476C28.5413 27.4523 27.397 28.5634 27.397 29.929V31.704C27.397 31.821 27.2976 31.9175 27.1772 31.9175H13.7467C13.5178 31.9175 13.307 31.7888 13.2077 31.59C13.1083 31.3911 13.1354 31.1484 13.2739 30.973L24.4007 17.2088C24.8103 16.7029 25.4216 16.4135 26.0841 16.4135H34.7446V16.4164Z" fill="url(#paint0_linear_465_1521)"/>
<defs>
<linearGradient id="paint0_linear_465_1521" x1="0" y1="20.0438" x2="43.7906" y2="20.0438" gradientUnits="userSpaceOnUse">
<stop stop-color="#00AEC7"/>
<stop offset="1" stop-color="#007E97"/>
</linearGradient>
</defs>
</svg>
